<svg xmlns="http://www.w3.org/2000/svg" viewBox="0 0 314.78 117.54"><defs><style>.cls-1,.cls-3{fill:#383733;}.cls-2{font-size:103.01px;fill:#f7ec13;font-family:neo-latina, neo latina;}.cls-3{font-size:32.89px;font-family:BebasNeueRegular, Bebas Neue;}</style></defs><title>Asset 1</title><g id="Layer_2" data-name="Layer 2"><g id="Layer_1-2" data-name="Layer 1"><g id="Icons_Outline" data-name="Icons Outline"><path class="cls-1" d="M0,112.24l8.5-12,73.4-.1,8.8,12Zm9.9-9.4-4.8,6.7,80.4-.1-4.9-6.7Z"/><path class="cls-1" d="M54.4,94.74H44.7a1.32,1.32,0,0,1-1.3-1.3V82.24a1.3,1.3,0,0,1,2.6,0v9.9h7v-9.9a1.3,1.3,0,0,1,2.6,0v11.2A1.18,1.18,0,0,1,54.4,94.74Z"/><path class="cls-1" d="M.1,83.24V24.54H98.2v58.7Zm2.6-56,.1,53.4H95.5V27.24Z"/><rect class="cls-1" x="18.43" y="92.29" width="61.1" height="2.6" transform="translate(-0.24 0.12) rotate(-0.15)"/><path class="cls-1" d="M108.9,112H92.8l-1.3-1.3v-.3a9.4,9.4,0,0,1,18.8,0v.3Zm-14.7-2.6h13.3a6.73,6.73,0,0,0-13.3,0Z"/></g><text class="cls-2" transform="translate(107.54 78.08)">CTM</text><text class="cls-3" transform="translate(117.98 111.65)">MUnicipio de Moca</text></g></g></svg>