<svg id="Layer_1" data-name="Layer 1" xmlns="http://www.w3.org/2000/svg" viewBox="0 0 821.7 115.86"><title>ath-movil</title><path d="M319.55,25.69V55.51H293.16v82.08H257.62V55.51H230.46V25.69Z" transform="translate(-10 -24.88)" style="fill:#fff"/><path d="M425.05,25.8V137.73H390.34V99H361.75v38.61H327V25.69h34.71V64.3h28.59V25.8Z" transform="translate(-10 -24.88)" style="fill:#fff"/><path d="M66.29,138.09a56.28,56.28,0,1,1,56.28-56.17,56.29,56.29,0,0,1-56.28,56.17ZM64.35,53.61c-5.51,0-11,0-16.55,0A17.86,17.86,0,0,0,30.61,67.53c-1.35,6.26-.5,12.65-.54,19a3.6,3.6,0,0,0,2.72,3.42A3.93,3.93,0,0,0,36.91,89a4.9,4.9,0,0,0,1.3-3.75c0-4.45-.05-8.9,0-13.35A9.85,9.85,0,0,1,47.69,62c11.45-.07,22.9,0,34.35,0,1.06,0,1.31.34,1.28,1.32-.06,1.83,0,3.68,0,5.51,0,1-.14,2,1,2.47s1.82-.11,2.59-.68c4.85-3.62,9.7-7.22,14.55-10.85,1.89-1.41,1.93-2.5.08-3.9-5-3.75-10-7.44-15-11.15-.61-.47-1.23-.93-2.1-.5a2.09,2.09,0,0,0-1.1,2.22c0,1.9-.06,3.8,0,5.69.05,1.19-.37,1.49-1.52,1.48C76,53.57,70.17,53.6,64.35,53.61Zm3.78,49.59c-5.7,0-11.4,0-17.1,0-1.25,0-1.82-.19-1.69-1.64.15-1.7,0-3.43,0-5.15,0-1,.07-2-.95-2.5s-1.8,0-2.59.62c-4.88,3.67-9.79,7.31-14.68,11-1.69,1.27-1.71,2.42,0,3.68,5,3.73,10,7.42,15,11.15a2.09,2.09,0,0,0,2.13.52,2,2,0,0,0,1.1-2.06c0-1.66.11-3.33,0-5s.3-2.3,2.21-2.3c11.39,0,22.79.35,34.18-.14a17.88,17.88,0,0,0,17-17.54c.07-4.81,0-9.61,0-14.42,0-2.58-1.65-4.36-3.93-4.34-2.45,0-4,1.71-4,4.43,0,4.45,0,8.9,0,13.35a10,10,0,0,1-10.36,10.33C78.93,103.22,73.53,103.2,68.13,103.2Z" transform="translate(-10 -24.88)" style="fill:#fff"/><path d="M64.35,53.61c5.82,0,11.63,0,17.45,0,1.15,0,1.57-.29,1.52-1.48-.08-1.89,0-3.79,0-5.69a2.07,2.07,0,0,1,1.09-2.22c.87-.43,1.49,0,2.1.5,5,3.7,10,7.4,15,11.15,1.86,1.4,1.81,2.49-.08,3.9-4.84,3.63-9.7,7.23-14.55,10.85-.77.57-1.53,1.17-2.59.68s-1-1.52-1-2.47c0-1.84,0-3.68,0-5.51,0-1-.21-1.33-1.28-1.33-11.45,0-22.9,0-34.35,0a9.84,9.84,0,0,0-9.48,9.86c0,4.45,0,8.9,0,13.35A4.91,4.91,0,0,1,36.91,89a3.93,3.93,0,0,1-4.12.93,3.61,3.61,0,0,1-2.72-3.42c0-6.33-.81-12.72.54-19A17.87,17.87,0,0,1,47.8,53.62c5.52-.06,11,0,16.55,0Z" transform="translate(-10 -24.88)" style="fill:none"/><path d="M68.13,103.2c5.4,0,10.8,0,16.21,0A10,10,0,0,0,94.7,92.86c0-4.45,0-8.9,0-13.36,0-2.71,1.58-4.41,4-4.42,2.28,0,3.91,1.75,3.93,4.34,0,4.8.08,9.61,0,14.42a17.88,17.88,0,0,1-17,17.54c-11.39.49-22.79.15-34.18.14-1.91,0-2.34.59-2.21,2.3s.05,3.33,0,5a2,2,0,0,1-1.11,2,2.08,2.08,0,0,1-2.13-.51c-5-3.73-10-7.42-15-11.16-1.69-1.26-1.67-2.4,0-3.67l14.69-11c.78-.6,1.57-1.15,2.58-.62s1,1.54,1,2.49c0,1.72.12,3.46,0,5.16-.13,1.45.44,1.66,1.7,1.64C56.73,103.17,62.43,103.2,68.13,103.2Z" transform="translate(-10 -24.88)" style="fill:none"/><path d="M242.71,134.69c-9.14-30-17.27-60.31-27.5-90A28.22,28.22,0,0,0,187.8,25.9c-12.36.2-24.09,8-27.3,19.05-8.66,29.82-17,59.73-25.54,89.58a4.46,4.46,0,0,0-.12,3.09h32.88c2.66-2.39,2.73-7.76,3.94-11.8a8.19,8.19,0,0,0,.18-1c.49-2.58,1.92-3.51,4.64-3.43,7.89.19,15.79.15,23.67,0,2.42,0,3.64.75,4.59,3,1.9,4.52,2,11.07,6.06,13.07a3,3,0,0,0,.37.16h31.4C243.12,137.08,243.15,136.15,242.71,134.69ZM179.62,92.36,187.32,64l8.25,28.33Z" transform="translate(-10 -24.88)" style="fill:#fff"/><path d="M571.52,135.61c.05,1.64-.29,2.59-1.27,3H553.52c-1.24-.55-1.53-1.86-1.51-3.89.15-12.18.1-24.36,0-36.53a42.25,42.25,0,0,0-.54-8.2c-1.35-6.41-4.45-11.57-11.47-13a16.49,16.49,0,0,0-17.67,7.69,21.31,21.31,0,0,0-3.25,11.7c.07,12.52-.18,25,.13,37.54.06,2.66-.46,4.08-1.83,4.69h-16c-1.38-.59-1.87-2-1.84-4.34.15-13.73.21-27.46-.05-41.17-.19-10.66-8.2-17.58-18.54-16.52-7.94.82-14.45,8.72-14.52,17.93-.1,13-.14,26.06.05,39.1,0,2.5-.25,4.27-1.74,5h-16a4.53,4.53,0,0,1-1.08-.82,4.66,4.66,0,0,1-.71-1V61.94c.42-1.94,1.68-2.2,4.4-2.36,1.52-.09,5.92,0,7.46,0,8.53.4,6.23,0,7.51,9,6.24-7.49,13.62-10.59,22.59-10.1,8.39.47,15.38,3.46,19.85,10.84,1.69,2.8,2.52,3.41,4.92.49,8.64-10.54,22.17-14,36.4-9.35,12.92,4.21,19,13.93,20.54,26.85,1.93,16.05.4,32.18.9,48.26Z" transform="translate(-10 -24.88)" style="fill:#fff"/><path d="M670.62,99.73c-.19,24.65-17.52,41.26-42.81,41-22.86-.22-40-18.12-39.74-41.6.22-24,17.54-41,41.56-40.76S670.79,76,670.62,99.73Zm-63.08-.3c0,14.19,8.8,23.84,21.8,23.87,12.63,0,21.81-9.79,21.93-23.44s-9.27-24-21.89-24C616,75.87,607.56,85,607.54,99.43Z" transform="translate(-10 -24.88)" style="fill:#fff"/><path d="M654.74,25.62c-6.2,7.81-11.59,14.58-17,21.37a3.05,3.05,0,0,1-2.65,1.18c-4.9,0-9.8,0-15.67,0C623.58,40.63,627.31,33.83,631,27c.7-1.29,1.8-1.38,3-1.38Z" transform="translate(-10 -24.88)" style="fill:#fff"/><path d="M785.17,48.33a11.3,11.3,0,0,1-11.8-10.91c-.23-6.13,4.86-11.28,11.33-11.47a11.2,11.2,0,1,1,.47,22.38Z" transform="translate(-10 -24.88)" style="fill:#fff"/><path d="M726.66,104.76,732.85,73c1.72-6.07,3.52-9.94,5.41-11.64s5.59-2.55,11.09-2.55q11.5,0,11.51,6.94a16.69,16.69,0,0,1-1.2,5.7l-22.34,57.66q-4.12,10.49-13.75,10.48h-7.9q-8.94,0-12.72-9.9L681.29,73a20.68,20.68,0,0,1-1.72-7.43q0-6.81,7.57-6.8h7.56q9.1,0,11.68,9.31L714,104.71c1.48,5.38,3.66,12.32,6.53,12.32,2.63,0,4.69-6.93,6.18-12.27Z" transform="translate(-10 -24.88)" style="fill:#fff"/><path d="M786.77,58.12q8,0,8,13.38v56.88q0,11-10,11c-4,0-6.73-1.11-8.15-3.35-1.26-1.93-1.89-5.27-1.89-10V69.07a13.63,13.63,0,0,1,2.08-8,6.35,6.35,0,0,1,5.45-3Z" transform="translate(-10 -24.88)" style="fill:#fff"/><path d="M823.6,24.88q8.1,0,8.1,12v92.38q0,10.33-9.37,10.33-5.69,0-8-2.83c-1.56-1.87-2.34-4.92-2.34-9.12V35.21a12.44,12.44,0,0,1,2.09-7.34,6.42,6.42,0,0,1,5.5-3Z" transform="translate(-10 -24.88)" style="fill:#fff"/></svg>