<svg id="Layer_1" data-name="Layer 1" xmlns="http://www.w3.org/2000/svg" viewBox="0 0 100 100"><title>contact</title><circle cx="50" cy="50" r="50" style="fill:#d61920"/><path d="M253.16,264.88c-2.15,0-4.3-1.89-5.38-2.69-5.37-3.76-7-5.11-8.06-5.91v11.28a2.68,2.68,0,0,0,2.69,2.69h21.5a2.68,2.68,0,0,0,2.68-2.69V256.28c-1.07.8-2.68,2.15-8.06,5.91C257.46,263,255.31,264.88,253.16,264.88Zm10.75-16.13h-21.5a2.68,2.68,0,0,0-2.69,2.69v1.34c2.15,1.61,1.88,1.61,9.67,7.26.81.53,2.42,2.15,3.77,2.15s3-1.62,3.76-1.88c7.79-5.65,7.52-5.65,9.67-7.26v-1.61A2.68,2.68,0,0,0,263.91,248.75Zm21.5-8.06H258.53a2.69,2.69,0,0,0-2.69,2.69v2.68h8.07a5.39,5.39,0,0,1,5.35,4.86l0,0v11.29h16.13a2.69,2.69,0,0,0,2.68-2.69V243.38A2.68,2.68,0,0,0,285.41,240.69Zm-2.69,10.75h-5.38v-5.38h5.38Zm-29.56-8.06a5.38,5.38,0,0,1,5.37-5.38h18.81v-8.06a2.68,2.68,0,0,0-2.68-2.69H247.78a2.69,2.69,0,0,0-2.69,2.69v16.12h8.07Z" transform="translate(-213.91 -198.75)" style="fill:#fff"/></svg>