<svg id="Layer_1" data-name="Layer 1" xmlns="http://www.w3.org/2000/svg" viewBox="0 0 600 50"><defs><style>.cls-1{fill:none;stroke:#ee3424;stroke-miterlimit:10;stroke-width:10px;}.cls-2{fill:#ee3424;}</style></defs><title>divider-h</title><line class="cls-1" y1="25" x2="265" y2="25"/><line class="cls-1" x1="335" y1="25" x2="600" y2="25"/><path class="cls-2" d="M289.91,33l-.46-.32a.32.32,0,0,1-.19-.4c.17-.81.12-1.07-.87-1.41-.69-.23-.9-.61-.71-1.45a5.7,5.7,0,0,1,1-2.19.67.67,0,0,0,.1-.74,0,0,0,0,0,0,0,1.91,1.91,0,0,1,.06-2,.32.32,0,0,0,0-.45.3.3,0,0,0-.17-.08,5,5,0,0,0-1.14-.28c-.63-.05-1.27,0-1.9-.06a4.55,4.55,0,0,1-3.16-1.87,9.76,9.76,0,0,1-1.69-3.84,28.38,28.38,0,0,1-.58-7.86c0-.65.09-1.3.14-1.95a.67.67,0,0,1,.46-.66c.33-.09.52.09.68.34.33.49.4.5.82,0l.12-.13c.28-.25.51-.18.59.18.15.66.28,1.32.45,2a1.86,1.86,0,0,0,.13.34h.09a2.37,2.37,0,0,0,.15-.28c.09-.24.15-.48.25-.72A.67.67,0,0,1,285.3,9a6.41,6.41,0,0,1,.39,1c.07.16.16.32.25.48a3.24,3.24,0,0,0,.28-.47c.1-.24.16-.49.24-.73s.21-.4.46-.37a.51.51,0,0,1,.41.48c.06.3.08.61.14.91s.09.3.15.32h.11c.06,0,.12-.11.18-.23a2.49,2.49,0,0,1,.21-.51.45.45,0,0,1,.6-.23.46.46,0,0,1,.21.18,2.38,2.38,0,0,1,.34.74c.12.37.23.45.6.34s.52-.1.73.28.28.52.41.79.28.26.5.12l.17-.13c.34-.25.52-.19.65.21s.22.74.36,1.11a2.33,2.33,0,0,0,.26.38c.13-.11.31-.18.38-.31.48-.83.93-1.66,1.39-2.49l2.07-3.69a3.52,3.52,0,0,1,2.59-2,10.67,10.67,0,0,1,2.33,0,18.74,18.74,0,0,1,4.22,1.1,4.06,4.06,0,0,1,2.33,2.35,9,9,0,0,1,.72,3.79c0,1.22-.18,2.44-.24,3.66a4.14,4.14,0,0,0,1.69,3.72,44.9,44.9,0,0,1,5.77,5,12.57,12.57,0,0,1,2.5,4.32,26.45,26.45,0,0,1,1.28,5.1,1.69,1.69,0,0,1,0,.55c0,.38-.28.51-.63.33a1.23,1.23,0,0,1-.28-.23l-2.23-2.36a1.19,1.19,0,0,0-.2-.19.36.36,0,0,0-.25,0,.24.24,0,0,0-.08.21c0,.22.1.49-.13.56a.79.79,0,0,1-.65-.15,14.93,14.93,0,0,1-1.13-1.12c-.11-.13-.19-.28-.31-.42s-.32-.15-.41.09c0,0,0,0,0,.05-.16.67-.51.82-1.08.42a5.5,5.5,0,0,1-.85-.75c-.26-.26-.29-.26-.56-.05a.48.48,0,0,1-.4.06,3.48,3.48,0,0,1-.78-.59c-.33-.34-.62-.73-.93-1.1a1.12,1.12,0,0,0-.18-.2.37.37,0,0,0-.29-.09.33.33,0,0,0-.16.25c-.05,1.17-.18,2.33-.13,3.49.07,1.61.26,3.22.41,4.82,0,.21-.1.25-.21.31a38.45,38.45,0,0,0-4.34,2.94,19.49,19.49,0,0,0-4.41,4.61,17.4,17.4,0,0,0-.85,1.6,4.86,4.86,0,0,1-.43.77.39.39,0,0,1-.72-.16,2.72,2.72,0,0,1-.05-.64,16.65,16.65,0,0,0-.3-4.11,4.79,4.79,0,0,0-.36-.91,2.23,2.23,0,0,1-.16-2,1.64,1.64,0,0,0-1.44-2.2,7.78,7.78,0,0,0-2.1.1,4.46,4.46,0,0,1-2.17-.29,1.56,1.56,0,0,1-1-2.1,1.92,1.92,0,0,1,.11-.31.68.68,0,0,0-.15-.85,2.52,2.52,0,0,1-.3-.35C289.34,33.71,289.34,33.58,289.91,33Z"/></svg>