<svg id="Layer_1" data-name="Layer 1" xmlns="http://www.w3.org/2000/svg" viewBox="0 0 250 250"><title>pava</title><path fill="#ee3424" d="M89,151.52a19.92,19.92,0,0,0-1.64-1.15,1.15,1.15,0,0,1-.67-1.41c.62-2.88.43-3.82-3.07-5-2.47-.83-3.19-2.17-2.54-5.16a20.41,20.41,0,0,1,3.5-7.79,2.45,2.45,0,0,0,.36-2.63.3.3,0,0,0,0-.1,6.76,6.76,0,0,1,.2-7.21,1.12,1.12,0,0,0-.66-1.87,18.29,18.29,0,0,0-4.08-1c-2.23-.19-4.51,0-6.73-.21a16.13,16.13,0,0,1-11.21-6.63c-3.14-4-4.84-8.74-6-13.64-2.18-9.19-2.49-18.53-2.06-27.92.1-2.32.32-4.63.48-6.95a2.37,2.37,0,0,1,1.64-2.32c1.17-.33,1.85.32,2.42,1.2,1.15,1.75,1.42,1.76,2.89.16.15-.16.28-.33.44-.47,1-.88,1.8-.64,2.1.64.54,2.33,1,4.67,1.6,7a9.68,9.68,0,0,0,.47,1.27l.3,0a10.36,10.36,0,0,0,.52-1.06c.32-.85.54-1.73.92-2.55,1-2.14,3.25-2.35,4.46-.33a24,24,0,0,1,1.37,3.64,17.43,17.43,0,0,0,.91,1.7,11.06,11.06,0,0,0,1-1.66c.35-.84.55-1.73.83-2.59s.75-1.4,1.64-1.3a1.8,1.8,0,0,1,1.47,1.69c.2,1.07.28,2.16.48,3.23a10.36,10.36,0,0,0,.55,1.56l.38,0c.21-.41.44-.82.63-1.24a11.84,11.84,0,0,1,.75-1.79,1.63,1.63,0,0,1,2.88-.2,8.89,8.89,0,0,1,1.21,2.63c.43,1.33.83,1.62,2.12,1.21,1.5-.48,1.85-.34,2.6,1,.5.93,1,1.85,1.46,2.79s1,.92,1.77.44c.21-.13.4-.31.6-.46,1.21-.88,1.87-.67,2.32.74s.78,2.64,1.26,3.93a6.36,6.36,0,0,0,.95,1.35c.46-.36,1.09-.63,1.35-1.1,1.69-2.92,3.28-5.89,4.92-8.84q3.66-6.56,7.35-13.1c2.06-3.68,4.91-6.55,9.22-7.12a35.56,35.56,0,0,1,8.24.18,64.13,64.13,0,0,1,15,3.9c4,1.47,6.6,4.48,8.28,8.32a32.43,32.43,0,0,1,2.57,13.48c-.06,4.34-.64,8.67-.87,13a14.76,14.76,0,0,0,6,13.22c7.21,5.47,14.28,11.08,20.49,17.72,4.15,4.44,6.79,9.73,8.87,15.34a93.33,93.33,0,0,1,4.57,18.11,7.48,7.48,0,0,1,0,1.95c-.15,1.35-1,1.8-2.24,1.18a4.38,4.38,0,0,1-1-.83q-4-4.19-7.93-8.39a3.38,3.38,0,0,0-.71-.66,1.21,1.21,0,0,0-.89-.07.84.84,0,0,0-.27.74c.12.77.37,1.75-.48,2a2.87,2.87,0,0,1-2.29-.53,51.52,51.52,0,0,1-4-4c-.42-.44-.7-1-1.11-1.48-.58-.67-1.16-.54-1.45.3,0,.06,0,.14-.06.21-.55,2.37-1.79,2.91-3.83,1.49a21.55,21.55,0,0,1-3-2.68c-.92-.92-1.05-.92-2-.17a1.65,1.65,0,0,1-1.43.21,12.8,12.8,0,0,1-2.75-2.09c-1.19-1.22-2.21-2.59-3.31-3.9a3.28,3.28,0,0,0-.63-.74c-.31-.19-.77-.42-1.06-.32a1.21,1.21,0,0,0-.54.92c-.2,4.13-.64,8.27-.47,12.39.24,5.72.91,11.42,1.47,17.12.07.74-.36.86-.76,1.1a131.84,131.84,0,0,0-15.41,10.43c-6,4.75-11.5,9.94-15.68,16.37-1.16,1.78-2,3.78-3,5.68a16.87,16.87,0,0,1-1.54,2.72,1.36,1.36,0,0,1-2.54-.55,8.5,8.5,0,0,1-.19-2.26c.09-4.91.08-9.81-1.06-14.62a15.81,15.81,0,0,0-1.28-3.21c-1.18-2.36-1.75-4.62-.57-7.26,1.55-3.46-1-7.08-5.1-7.8-2.54-.44-5,.1-7.48.33a15.76,15.76,0,0,1-7.69-1c-3.44-1.46-4.57-3.86-3.57-7.46a7.59,7.59,0,0,1,.4-1.13,2.34,2.34,0,0,0-.54-3,14.07,14.07,0,0,1-1.07-1.23C87,154,87,153.54,89,151.52Z"/></svg>