<?xml version="1.0" encoding="utf-8"?>
<!-- Generator: Adobe Illustrator 22.1.0, SVG Export Plug-In . SVG Version: 6.00 Build 0)  -->
<svg version="1.1" id="Layer_1" xmlns="http://www.w3.org/2000/svg" xmlns:xlink="http://www.w3.org/1999/xlink" x="0px" y="0px"
	 viewBox="0 0 50.8 60" style="enable-background:new 0 0 50.8 60;" xml:space="preserve">
<style type="text/css">
	.st0{opacity:0.68;fill:#019CDE;enable-background:new    ;}
	.st1{fill:#012269;enable-background:new    ;}
	.st2{fill:#013088;}
</style>
<g>
	<path class="st0" d="M45.8,15.2c0.7-4.7,0-7.8-2.5-10.7C40.5,1.4,35.5,0,29.1,0H10.4C9.1,0,8,1,7.8,2.3L0,51.5
		c-0.2,1,0.6,1.9,1.6,1.9h11.5l-0.8,5c-0.1,0.8,0.5,1.6,1.4,1.6h9.7c1.1,0,2.1-0.8,2.3-2l0.1-0.5l1.8-11.6l0.1-0.6
		c0.2-1.1,1.2-2,2.3-2h1.5c9.4,0,16.8-3.8,18.9-14.9c0.9-4.6,0.4-8.5-1.9-11.2C47.8,16.5,46.9,15.8,45.8,15.2L45.8,15.2"/>
	<path class="st1" d="M45.8,15.2c0.7-4.7,0-7.8-2.5-10.7C40.5,1.4,35.5,0,29.1,0H10.4C9.1,0,8,1,7.8,2.3L0,51.5
		c-0.2,1,0.6,1.9,1.6,1.9h11.5L16,35l-0.1,0.6c0.2-1.3,1.3-2.3,2.6-2.3H24c10.7,0,19.2-4.4,21.6-17C45.7,16,45.8,15.6,45.8,15.2"/>
	<path class="st2" d="M19.1,15.3c0.1-0.8,0.6-1.4,1.3-1.7c0.3-0.1,0.6-0.2,1-0.2H36c1.7,0,3.3,0.1,4.8,0.4c0.4,0.1,0.8,0.1,1.2,0.2
		s0.8,0.2,1.2,0.3c0.2,0.1,0.4,0.1,0.6,0.2c0.7,0.2,1.4,0.5,2,0.9c0.7-4.7,0-7.8-2.5-10.7C40.5,1.4,35.5,0,29.1,0H10.4
		C9.1,0,8,1,7.8,2.3L0,51.5c-0.2,1,0.6,1.9,1.6,1.9h11.5L16,35L19.1,15.3z"/>
</g>
</svg>
