<svg id="Layer_1" data-name="Layer 1" xmlns="http://www.w3.org/2000/svg" viewBox="0 0 404.65 98.18"><title>ppcom-color</title><path d="M311.63,22H289.38a3.1,3.1,0,0,0-3.06,2.62l-9,57.05a1.85,1.85,0,0,0,1.83,2.14h11.41a2.15,2.15,0,0,0,2.14-1.83l2.55-16.17a3.1,3.1,0,0,1,3.06-2.61h7c14.65,0,23.11-7.09,25.32-21.15,1-6.15,0-11-2.84-14.36C324.68,23.92,319.07,22,311.63,22Zm2.57,20.84c-1.22,8-7.32,8-13.22,8h-3.36L300,35.87a1.86,1.86,0,0,1,1.83-1.57h1.54c4,0,7.81,0,9.76,2.29C314.29,38,314.64,40,314.2,42.79Z" transform="translate(0)" style="fill:#019cde"/><path d="M152.93,22H130.68a3.09,3.09,0,0,0-3.05,2.62l-9,57.05a1.85,1.85,0,0,0,1.83,2.14h10.63a3.08,3.08,0,0,0,3-2.61l2.43-15.39a3.09,3.09,0,0,1,3.05-2.61h7c14.66,0,23.12-7.09,25.33-21.15,1-6.15,0-11-2.84-14.36C166,23.92,160.38,22,152.93,22Zm2.57,20.84c-1.22,8-7.32,8-13.21,8h-3.36l2.35-14.91a1.87,1.87,0,0,1,1.83-1.57h1.54c4,0,7.81,0,9.77,2.29C155.59,38,155.94,40,155.5,42.79Z" transform="translate(0)" style="fill:#013088"/><path d="M219.43,42.54H208.78A1.85,1.85,0,0,0,207,44.1l-.47,3L205.74,46c-2.31-3.35-7.45-4.47-12.59-4.47-11.77,0-21.83,8.93-23.78,21.44-1,6.24.42,12.2,4,16.36,3.26,3.83,7.9,5.42,13.42,5.42a20.39,20.39,0,0,0,14.75-6.1l-.47,3a1.85,1.85,0,0,0,1.83,2.14h9.59a3.09,3.09,0,0,0,3.06-2.61l5.76-36.47A1.85,1.85,0,0,0,219.43,42.54ZM204.59,63.28a11.88,11.88,0,0,1-12,10.17c-3.09,0-5.56-1-7.15-2.88a9,9,0,0,1-1.67-7.48,11.93,11.93,0,0,1,11.94-10.25,9,9,0,0,1,7.1,2.9A9.22,9.22,0,0,1,204.59,63.28Z" transform="translate(0)" style="fill:#013088"/><path d="M378.13,42.54H367.48a1.85,1.85,0,0,0-1.83,1.56l-.47,3L364.43,46c-2.31-3.35-7.45-4.47-12.58-4.47-11.77,0-21.83,8.93-23.78,21.44-1,6.24.42,12.2,4,16.36,3.25,3.83,7.89,5.42,13.42,5.42a20.39,20.39,0,0,0,14.75-6.1l-.48,3a1.86,1.86,0,0,0,1.84,2.14h9.59a3.08,3.08,0,0,0,3.05-2.61L380,44.68A1.85,1.85,0,0,0,378.13,42.54ZM363.28,63.28a11.87,11.87,0,0,1-12,10.17,8.26,8.26,0,0,1-8.83-10.36,11.93,11.93,0,0,1,11.94-10.25,9,9,0,0,1,7.11,2.9A9.18,9.18,0,0,1,363.28,63.28Z" transform="translate(0)" style="fill:#019cde"/><path d="M276.18,42.54H265.47a3.12,3.12,0,0,0-2.56,1.35L248.14,65.65l-6.26-20.91a3.09,3.09,0,0,0-3-2.2H228.39A1.85,1.85,0,0,0,226.64,45L238.43,79.6,227.34,95.25a1.86,1.86,0,0,0,1.51,2.93h10.7a3.11,3.11,0,0,0,2.54-1.33l35.61-51.4A1.85,1.85,0,0,0,276.18,42.54Z" transform="translate(0)" style="fill:#013088"/><path d="M390.69,23.52l-9.13,58.1a1.85,1.85,0,0,0,1.83,2.14h9.18a3.09,3.09,0,0,0,3.06-2.61l9-57A1.85,1.85,0,0,0,402.8,22H392.52A1.84,1.84,0,0,0,390.69,23.52Z" transform="translate(0)" style="fill:#019cde"/><path d="M75,24.94c1.2-7.63,0-12.83-4.14-17.54C66.29,2.22,58.08,0,47.57,0H17.05a4.36,4.36,0,0,0-4.31,3.69L0,84.26a2.62,2.62,0,0,0,2.59,3H21.46l-1.3,8.24a2.29,2.29,0,0,0,2.26,2.65H38.3A3.82,3.82,0,0,0,42.07,95l.16-.8,3-19,.19-1.05a3.82,3.82,0,0,1,3.77-3.22h2.38c15.38,0,27.43-6.25,31-24.33C84,39,83.22,32.73,79.33,28.29A15.43,15.43,0,0,0,75,24.94h0" transform="translate(0)" style="fill:#019cde;opacity:0.6800000071525574;isolation:isolate"/><path d="M75,24.94c1.2-7.63,0-12.83-4.14-17.54C66.29,2.22,58.08,0,47.57,0H17.05a4.36,4.36,0,0,0-4.31,3.69L0,84.26a2.62,2.62,0,0,0,2.59,3H21.46l4.73-30-.15.94a4.36,4.36,0,0,1,4.3-3.69h9c17.59,0,31.36-7.14,35.38-27.8.12-.61.22-1.2.31-1.79" transform="translate(0)" style="fill:#012269;isolation:isolate"/><path d="M31.27,25.05a3.87,3.87,0,0,1,2.13-2.86,3.8,3.8,0,0,1,1.65-.37H59a49.8,49.8,0,0,1,7.89.58c.69.11,1.36.24,2,.38s1.29.31,1.9.49l.91.28A21.94,21.94,0,0,1,75,24.94c1.2-7.63,0-12.83-4.14-17.54C66.29,2.22,58.08,0,47.57,0H17.05a4.36,4.36,0,0,0-4.31,3.69L0,84.26a2.62,2.62,0,0,0,2.59,3H21.46l4.73-30Z" transform="translate(0)" style="fill:#013088"/></svg>