<?xml version="1.0" standalone="no"?>
<!DOCTYPE svg PUBLIC "-//W3C//DTD SVG 20010904//EN"
 "http://www.w3.org/TR/2001/REC-SVG-20010904/DTD/svg10.dtd">
<svg version="1.0" xmlns="http://www.w3.org/2000/svg"
 width="1600.000000pt" height="1600.000000pt" viewBox="0 0 1600.000000 1600.000000"
 preserveAspectRatio="xMidYMid meet">
<metadata>
Created by potrace 1.11, written by Peter Selinger 2001-2013
</metadata>
<g transform="translate(0.000000,1600.000000) scale(0.100000,-0.100000)"
fill="#000000" stroke="none">
<path d="M0 9175 l0 -4705 3388 2 3387 3 3 413 2 412 -2945 0 -2945 0 0 3875
0 3875 4140 0 4140 0 0 -2660 0 -2660 445 0 445 0 0 3075 0 3075 -5030 0
-5030 0 0 -4705z"/>
<path d="M5073 12555 c-139 -45 -284 -169 -359 -305 -23 -41 -150 -266 -281
-500 -132 -234 -256 -454 -274 -489 -66 -123 -88 -113 -146 69 -53 167 -62
175 -146 119 -26 -17 -54 -29 -64 -27 -11 2 -38 41 -68 97 -27 52 -62 103 -76
114 -25 18 -29 18 -74 3 -42 -15 -50 -15 -70 -2 -13 9 -25 30 -30 52 -9 53
-44 122 -68 139 -12 8 -36 15 -55 15 -43 0 -75 -35 -98 -103 -35 -111 -59 -95
-80 55 -20 135 -52 183 -111 163 -33 -12 -65 -71 -83 -155 -12 -57 -34 -100
-50 -100 -14 0 -35 48 -50 115 -26 126 -84 195 -160 195 -65 0 -95 -36 -136
-165 -13 -41 -28 -70 -36 -70 -8 0 -21 35 -37 100 -81 346 -73 320 -108 323
-27 3 -40 -5 -82 -47 -28 -28 -58 -51 -65 -51 -8 0 -25 15 -37 33 -46 67 -71
87 -109 87 -39 0 -74 -20 -91 -53 -32 -59 -51 -761 -29 -1057 27 -354 91 -672
184 -903 47 -114 68 -156 131 -252 120 -184 259 -294 450 -355 60 -19 102 -24
290 -30 190 -6 228 -10 276 -29 31 -12 64 -30 74 -41 17 -18 16 -22 -13 -92
-55 -133 -55 -137 -16 -244 19 -52 34 -105 34 -117 0 -12 -15 -44 -34 -70 -74
-104 -150 -289 -162 -396 -12 -110 24 -162 141 -201 40 -13 80 -35 102 -56 36
-34 36 -34 30 -102 -3 -37 -8 -75 -12 -84 -5 -13 7 -26 49 -54 31 -20 56 -39
56 -42 0 -2 -13 -20 -30 -39 -48 -54 -42 -87 31 -177 33 -42 65 -78 70 -81 15
-10 10 -68 -12 -130 -46 -128 -24 -246 58 -314 118 -97 293 -128 549 -97 113
14 154 16 217 7 147 -21 232 -82 264 -190 19 -66 13 -137 -16 -201 -36 -78
-22 -189 37 -293 73 -130 102 -308 107 -677 4 -230 6 -257 23 -280 51 -68 125
-13 186 141 180 448 732 981 1486 1433 52 31 98 60 103 65 4 4 0 52 -8 107
-48 323 -70 889 -46 1165 17 195 31 200 149 52 148 -186 261 -267 302 -217 36
42 47 39 133 -44 83 -80 118 -103 171 -116 56 -14 106 27 106 88 0 31 24 61
43 53 8 -3 35 -32 58 -64 106 -144 213 -233 281 -233 47 0 63 24 53 86 -7 47
8 65 39 47 9 -5 109 -107 222 -228 114 -121 220 -226 236 -234 43 -22 80 -5
96 44 12 35 10 58 -13 190 -86 500 -246 954 -442 1248 -151 228 -509 568 -948
900 -214 162 -290 240 -348 356 -62 123 -80 212 -74 354 3 62 11 146 18 187
18 102 19 556 1 670 -19 124 -58 271 -94 358 -65 156 -182 294 -303 359 -118
62 -445 162 -670 204 -143 27 -477 36 -542 14z"/>
<path d="M7620 4605 l0 -2485 4190 0 4190 0 0 2485 0 2485 -4190 0 -4190 0 0
-2485z m2398 1187 c318 -71 504 -197 613 -417 56 -114 72 -200 66 -365 -3
-113 -8 -148 -31 -215 -86 -251 -291 -422 -600 -500 -130 -33 -267 -45 -501
-45 l-205 0 -2 -317 -3 -318 -322 -3 -323 -2 0 1106 0 1105 608 -4 c571 -4
613 -5 700 -25z m2092 4 c222 -44 371 -117 501 -246 97 -97 145 -181 179 -314
27 -108 27 -271 0 -385 -59 -247 -243 -434 -518 -527 -159 -54 -247 -66 -539
-71 l-263 -5 -2 -317 -3 -316 -325 0 -325 0 -3 1103 -2 1103 607 -4 c518 -3
621 -7 693 -21z m1915 14 c637 -60 1050 -393 1125 -908 18 -119 8 -345 -19
-447 -121 -460 -488 -747 -1056 -827 -63 -9 -249 -13 -620 -13 l-530 0 -3
1103 -2 1102 497 0 c274 0 548 -5 608 -10z"/>
<path d="M9360 5021 l0 -291 203 0 c262 0 340 20 419 108 53 59 72 117 66 206
-8 122 -63 193 -184 239 -53 19 -83 22 -281 25 l-223 4 0 -291z"/>
<path d="M11470 5019 l0 -291 223 4 c262 5 306 16 388 98 105 105 104 286 -3
386 -79 75 -162 94 -415 94 l-193 0 0 -291z"/>
<path d="M13578 5284 c-5 -4 -8 -259 -8 -567 l0 -559 218 5 c243 5 300 15 422
74 89 43 184 132 224 211 81 159 80 393 -2 546 -40 76 -145 177 -222 214 -119
58 -202 74 -425 79 -110 3 -203 2 -207 -3z"/>
</g>
</svg>
